<mxfile host="app.diagrams.net" modified="2023-05-18T15:39:52.011Z" agent="Mozilla/5.0 (Windows NT 10.0; Win64; x64) AppleWebKit/537.36 (KHTML, like Gecko) Chrome/113.0.0.0 Safari/537.36" etag="b0AjXCXFi1h4fj0C2zwL" version="21.2.9" type="google">
  <diagram name="Page-1" id="YyyxXyqNYqpXNg1hcqNF">
    <mxGraphModel grid="1" page="1" gridSize="10" guides="1" tooltips="1" connect="1" arrows="1" fold="1" pageScale="1" pageWidth="850" pageHeight="1100" math="0" shadow="0">
      <root>
        <mxCell id="0" />
        <mxCell id="1" parent="0" />
        <mxCell id="GHK0m-MIvGmjHyRTxm78-6" value="Banquinho: Banco" style="swimlane;fontStyle=0;childLayout=stackLayout;horizontal=1;startSize=26;fillColor=none;horizontalStack=0;resizeParent=1;resizeParentMax=0;resizeLast=0;collapsible=1;marginBottom=0;whiteSpace=wrap;html=1;" vertex="1" parent="1">
          <mxGeometry x="70" y="380" width="140" height="60" as="geometry" />
        </mxCell>
        <mxCell id="GHK0m-MIvGmjHyRTxm78-10" value="Zé: Pessoa física" style="swimlane;fontStyle=0;childLayout=stackLayout;horizontal=1;startSize=26;fillColor=none;horizontalStack=0;resizeParent=1;resizeParentMax=0;resizeLast=0;collapsible=1;marginBottom=0;whiteSpace=wrap;html=1;" vertex="1" parent="1">
          <mxGeometry x="340" y="210" width="170" height="140" as="geometry" />
        </mxCell>
        <mxCell id="GHK0m-MIvGmjHyRTxm78-11" value="nome: José Bonifácio&lt;br style=&quot;border-color: var(--border-color);&quot;&gt;endereço: avenida 25 de março&lt;br style=&quot;border-color: var(--border-color);&quot;&gt;telefone: 375960&lt;br style=&quot;border-color: var(--border-color);&quot;&gt;senha: 123&lt;br style=&quot;border-color: var(--border-color);&quot;&gt;historico: arquivo&lt;br&gt;CPF: 649359030" style="text;strokeColor=none;fillColor=none;align=left;verticalAlign=top;spacingLeft=4;spacingRight=4;overflow=hidden;rotatable=0;points=[[0,0.5],[1,0.5]];portConstraint=eastwest;whiteSpace=wrap;html=1;" vertex="1" parent="GHK0m-MIvGmjHyRTxm78-10">
          <mxGeometry y="26" width="170" height="114" as="geometry" />
        </mxCell>
        <mxCell id="GHK0m-MIvGmjHyRTxm78-14" value="Tito: Pessoa Física" style="swimlane;fontStyle=0;childLayout=stackLayout;horizontal=1;startSize=26;fillColor=none;horizontalStack=0;resizeParent=1;resizeParentMax=0;resizeLast=0;collapsible=1;marginBottom=0;whiteSpace=wrap;html=1;" vertex="1" parent="1">
          <mxGeometry x="400" y="370" width="160" height="130" as="geometry" />
        </mxCell>
        <mxCell id="GHK0m-MIvGmjHyRTxm78-15" value="nome: Tito&lt;br style=&quot;border-color: var(--border-color);&quot;&gt;endereço: rua 40&lt;br style=&quot;border-color: var(--border-color);&quot;&gt;telefone: 364743&lt;br style=&quot;border-color: var(--border-color);&quot;&gt;senha: user2&lt;br style=&quot;border-color: var(--border-color);&quot;&gt;historico: arquivo&lt;br&gt;CPF: 289305789" style="text;strokeColor=none;fillColor=none;align=left;verticalAlign=top;spacingLeft=4;spacingRight=4;overflow=hidden;rotatable=0;points=[[0,0.5],[1,0.5]];portConstraint=eastwest;whiteSpace=wrap;html=1;" vertex="1" parent="GHK0m-MIvGmjHyRTxm78-14">
          <mxGeometry y="26" width="160" height="104" as="geometry" />
        </mxCell>
        <mxCell id="GHK0m-MIvGmjHyRTxm78-18" value="Heitor: Gerente" style="swimlane;fontStyle=0;childLayout=stackLayout;horizontal=1;startSize=26;fillColor=none;horizontalStack=0;resizeParent=1;resizeParentMax=0;resizeLast=0;collapsible=1;marginBottom=0;whiteSpace=wrap;html=1;" vertex="1" parent="1">
          <mxGeometry x="430" y="520" width="150" height="160" as="geometry" />
        </mxCell>
        <mxCell id="GHK0m-MIvGmjHyRTxm78-19" value="nome: Heitor&lt;br style=&quot;border-color: var(--border-color);&quot;&gt;endereço: rua 23&lt;br style=&quot;border-color: var(--border-color);&quot;&gt;telefone: 999876&lt;br style=&quot;border-color: var(--border-color);&quot;&gt;senha: admin&lt;br style=&quot;border-color: var(--border-color);&quot;&gt;historico: arquivo&lt;br&gt;ID: 12&lt;br&gt;pedido de crédito: arquivo" style="text;strokeColor=none;fillColor=none;align=left;verticalAlign=top;spacingLeft=4;spacingRight=4;overflow=hidden;rotatable=0;points=[[0,0.5],[1,0.5]];portConstraint=eastwest;whiteSpace=wrap;html=1;" vertex="1" parent="GHK0m-MIvGmjHyRTxm78-18">
          <mxGeometry y="26" width="150" height="134" as="geometry" />
        </mxCell>
        <mxCell id="GHK0m-MIvGmjHyRTxm78-26" value="Petrobras: Pessoa Jurídica" style="swimlane;fontStyle=0;childLayout=stackLayout;horizontal=1;startSize=26;fillColor=none;horizontalStack=0;resizeParent=1;resizeParentMax=0;resizeLast=0;collapsible=1;marginBottom=0;whiteSpace=wrap;html=1;" vertex="1" parent="1">
          <mxGeometry x="210" y="590" width="190" height="130" as="geometry" />
        </mxCell>
        <mxCell id="GHK0m-MIvGmjHyRTxm78-27" value="nome: Petrobras&lt;br style=&quot;border-color: var(--border-color);&quot;&gt;endereço: papuda 90&lt;br style=&quot;border-color: var(--border-color);&quot;&gt;telefone: 190457&lt;br style=&quot;border-color: var(--border-color);&quot;&gt;senha: petro123&lt;br style=&quot;border-color: var(--border-color);&quot;&gt;historico: arquivo&lt;br&gt;CNPJ: 789237859" style="text;strokeColor=none;fillColor=none;align=left;verticalAlign=top;spacingLeft=4;spacingRight=4;overflow=hidden;rotatable=0;points=[[0,0.5],[1,0.5]];portConstraint=eastwest;whiteSpace=wrap;html=1;" vertex="1" parent="GHK0m-MIvGmjHyRTxm78-26">
          <mxGeometry y="26" width="190" height="104" as="geometry" />
        </mxCell>
        <mxCell id="GHK0m-MIvGmjHyRTxm78-30" value="" style="endArrow=diamondThin;endFill=1;endSize=24;html=1;rounded=0;exitX=-0.005;exitY=0.231;exitDx=0;exitDy=0;exitPerimeter=0;" edge="1" parent="1" source="GHK0m-MIvGmjHyRTxm78-19">
          <mxGeometry width="160" relative="1" as="geometry">
            <mxPoint x="340" y="490" as="sourcePoint" />
            <mxPoint x="210" y="440" as="targetPoint" />
          </mxGeometry>
        </mxCell>
        <mxCell id="GHK0m-MIvGmjHyRTxm78-31" value="" style="endArrow=diamondThin;endFill=1;endSize=24;html=1;rounded=0;exitX=0.333;exitY=0.017;exitDx=0;exitDy=0;exitPerimeter=0;entryX=0.75;entryY=1;entryDx=0;entryDy=0;" edge="1" parent="1" source="GHK0m-MIvGmjHyRTxm78-26" target="GHK0m-MIvGmjHyRTxm78-6">
          <mxGeometry width="160" relative="1" as="geometry">
            <mxPoint x="340" y="490" as="sourcePoint" />
            <mxPoint x="160" y="460" as="targetPoint" />
          </mxGeometry>
        </mxCell>
        <mxCell id="GHK0m-MIvGmjHyRTxm78-32" value="" style="endArrow=diamondThin;endFill=1;endSize=24;html=1;rounded=0;entryX=1;entryY=0.5;entryDx=0;entryDy=0;exitX=-0.017;exitY=0.787;exitDx=0;exitDy=0;exitPerimeter=0;" edge="1" parent="1" source="GHK0m-MIvGmjHyRTxm78-15">
          <mxGeometry width="160" relative="1" as="geometry">
            <mxPoint x="340" y="490" as="sourcePoint" />
            <mxPoint x="210" y="419" as="targetPoint" />
          </mxGeometry>
        </mxCell>
        <mxCell id="GHK0m-MIvGmjHyRTxm78-33" value="" style="endArrow=diamondThin;endFill=1;endSize=24;html=1;rounded=0;entryX=1;entryY=0.25;entryDx=0;entryDy=0;exitX=0.191;exitY=1.033;exitDx=0;exitDy=0;exitPerimeter=0;" edge="1" parent="1" source="GHK0m-MIvGmjHyRTxm78-11" target="GHK0m-MIvGmjHyRTxm78-6">
          <mxGeometry width="160" relative="1" as="geometry">
            <mxPoint x="340" y="490" as="sourcePoint" />
            <mxPoint x="500" y="490" as="targetPoint" />
          </mxGeometry>
        </mxCell>
      </root>
    </mxGraphModel>
  </diagram>
</mxfile>
